<?xml version="1.0" encoding="UTF-8" standalone="no"?>
<!-- Created with Inkscape (http://www.inkscape.org/) -->

<svg
   width="171.80276mm"
   height="74.788887mm"
   viewBox="0 0 171.80277 74.788888"
   version="1.1"
   id="svg9248"
   xml:space="preserve"
   inkscape:version="1.2 (dc2aeda, 2022-05-15)"
   sodipodi:docname="details.svg"
   inkscape:export-filename="details.png"
   inkscape:export-xdpi="73.921974"
   inkscape:export-ydpi="73.921974"
   xmlns:inkscape="http://www.inkscape.org/namespaces/inkscape"
   xmlns:sodipodi="http://sodipodi.sourceforge.net/DTD/sodipodi-0.dtd"
   xmlns="http://www.w3.org/2000/svg"
   xmlns:svg="http://www.w3.org/2000/svg"><sodipodi:namedview
     id="namedview9250"
     pagecolor="#ffffff"
     bordercolor="#000000"
     borderopacity="0.25"
     inkscape:showpageshadow="2"
     inkscape:pageopacity="0.0"
     inkscape:pagecheckerboard="0"
     inkscape:deskcolor="#d1d1d1"
     inkscape:document-units="mm"
     showgrid="false"
     inkscape:zoom="0.57773812"
     inkscape:cx="165.29981"
     inkscape:cy="80.486293"
     inkscape:window-width="1440"
     inkscape:window-height="781"
     inkscape:window-x="0"
     inkscape:window-y="25"
     inkscape:window-maximized="0"
     inkscape:current-layer="layer1" /><defs
     id="defs9245" /><g
     inkscape:label="Layer 1"
     inkscape:groupmode="layer"
     id="layer1"
     transform="translate(33.73605,-111.51034)"><rect
       style="display:inline;fill:#000000;fill-opacity:0.645533;stroke-width:24.7132;stroke-linejoin:bevel;stroke-opacity:0.7"
       id="rect11248"
       width="170.12761"
       height="72.42038"
       x="-32.880688"
       y="112.66532"
       inkscape:label="fundo" /><g
       id="g13639"
       inkscape:label="vr"
       transform="translate(-39.477487,6.6792094)"><path
         style="fill:#ffffff;fill-opacity:1;stroke:none;stroke-width:0.0557969"
         d="m 61.460919,130.31502 c 0.981804,2.32746 6.556759,3.19839 8.760128,2.594 1.138314,-0.31219 2.022752,-1.32607 3.236225,-1.36284 1.626593,-0.0493 3.514428,1.91512 5.117532,0.46523 0.838796,-0.75856 0.686302,-2.57453 0.593512,-3.59349 -0.11483,-1.26029 -0.235463,-2.83014 -0.981692,-3.90384 -0.993968,-1.43013 -4.127582,-2.43955 -5.789494,-2.6802 -0.158409,-0.85838 -0.706,-1.61287 -1.344151,-2.19082 -2.968176,-2.68786 -6.379547,-1.33394 -8.571699,1.57705 -0.639156,0.84873 -1.148805,1.79086 -1.510593,2.78985 -0.164544,0.45441 -0.174422,1.19768 -0.481249,1.5713 -0.773569,0.94191 -2.783321,0.71861 -3.652973,1.82595 -0.251978,0.32084 -0.174087,0.85258 -0.174087,1.2339 0,0.40492 -0.0939,1.18027 0.233177,1.48766 0.689092,0.64763 3.681707,0.34666 4.565364,0.18625 m 7.476797,-9.15071 c -2.54596,0.0607 -5.099845,1.4784 -7.03042,3.01304 0.675812,-1.88203 2.135461,-3.49591 4.017383,-4.23164 1.248904,-0.48828 2.647567,-0.28111 3.013037,1.2186 m 0.836955,1.14719 c 2.016838,-0.05 4.434242,0.86686 6.30506,1.5627 0.715037,0.26599 1.579612,0.57293 2.000766,1.25365 0.927459,1.49915 1.659125,6.82392 -0.884828,7.00436 -1.464223,0.10384 -2.509356,-1.15226 -3.905788,-1.28974 -1.818592,-0.17911 -4.024638,2.52057 -5.727896,0.68998 -0.574988,-0.61795 -0.521535,-1.60461 -0.521368,-2.38917 4.22e-4,-1.93588 0.0197,-6.76444 2.734054,-6.83178 z"
         id="path12487"
         inkscape:label="symbol" /><rect
         style="fill:none;fill-opacity:1;stroke:#ffffff;stroke-width:0.7;stroke-linejoin:bevel;stroke-dasharray:none;stroke-opacity:1"
         id="rect12489"
         width="24"
         height="24"
         x="55.946297"
         y="113.6441"
         ry="5"
         inkscape:label="border" /><text
         xml:space="preserve"
         style="font-style:normal;font-variant:normal;font-weight:normal;font-stretch:normal;font-size:9px;line-height:1.1;font-family:Arial;-inkscape-font-specification:Arial;text-align:start;letter-spacing:-0.185208px;text-anchor:start;fill:#ffffff;fill-opacity:1;stroke-width:6.00001;stroke-linejoin:bevel;stroke-opacity:0.7"
         x="85.548409"
         y="127.91827"
         id="text11334"
         inkscape:label="text"><tspan
           sodipodi:role="line"
           id="tspan11332"
           style="font-style:normal;font-variant:normal;font-weight:normal;font-stretch:normal;font-size:9px;font-family:Arial;-inkscape-font-specification:Arial;text-align:start;text-anchor:start;fill:#ffffff;fill-opacity:1;stroke-width:6"
           x="85.548409"
           y="127.91827">Virtual Reality</tspan></text></g><g
       id="g13691"
       inkscape:label="light"
       transform="translate(-39.477487,2.8004926)"><path
         style="fill:#ffffff;fill-opacity:1;stroke-width:0.042392"
         d="m 66.503074,172.90004 c -0.08153,-0.0983 -0.06778,-0.31809 0.0241,-0.38528 0.06242,-0.0457 0.356664,-0.0576 1.419096,-0.0576 1.473726,0 1.497851,0.004 1.497851,0.2461 0,0.26815 0.03162,0.26261 -1.497851,0.26261 -1.203726,0 -1.39583,-0.008 -1.443204,-0.0658 z m -0.440214,-1.10297 c -0.03664,-0.0367 -0.06661,-0.12112 -0.06661,-0.18773 0,-0.2603 -0.04555,-0.25435 1.950034,-0.25435 1.995574,0 1.950031,-0.006 1.950031,0.25435 0,0.26029 0.04555,0.25435 -1.950031,0.25435 -1.595116,0 -1.824931,-0.008 -1.883419,-0.0666 z m -0.466312,-1.10219 c -0.08995,-0.0899 -0.0842,-0.28586 0.01091,-0.37193 0.125528,-0.1136 4.581873,-0.1066 4.685008,0.008 0.08862,0.0979 0.09036,0.27775 0.0035,0.36457 -0.101188,0.10118 -4.59827,0.10118 -4.699458,0 z m 0.481108,-1.13416 c -0.594736,-0.24651 -0.918255,-0.70213 -1.01368,-1.42753 -0.143172,-1.08837 -0.436737,-2.02364 -0.89152,-2.84026 -1.040842,-1.86901 -1.285811,-2.63599 -1.184252,-3.70785 0.271623,-2.8667 2.919401,-4.9118 5.762357,-4.45075 2.390663,0.38771 4.166473,2.45622 4.165435,4.85202 -3.91e-4,0.9291 -0.23628,1.59292 -1.129737,3.17939 -0.497016,0.88253 -0.778402,1.73645 -0.936431,2.84178 -0.114788,0.80288 -0.400947,1.26229 -0.945188,1.51739 l -0.241486,0.11319 -1.674485,0.0103 c -1.664935,0.0102 -1.675835,0.01 -1.911013,-0.0877 z m -8.878348,-5.17596 c -0.127998,-0.12801 -0.133572,-0.23257 -0.01896,-0.3556 0.130064,-0.13962 3.589817,-0.14702 3.728847,-0.008 0.09934,0.0993 0.109364,0.2469 0.02464,0.36283 -0.05763,0.0788 -0.134471,0.0828 -1.844643,0.0942 l -1.784501,0.0119 z m 17.86883,0.0732 c -0.176936,-0.0633 -0.222687,-0.29899 -0.08478,-0.43689 0.139029,-0.13903 3.598782,-0.13161 3.728846,0.008 0.114304,0.12268 0.10909,0.22756 -0.01762,0.35426 l -0.104054,0.10406 -1.729402,-0.004 c -0.95117,-0.002 -1.758016,-0.0136 -1.792989,-0.0261 z m -14.755912,-4.43422 c -1.934811,-1.11328 -1.936019,-1.11412 -1.870945,-1.30161 0.110656,-0.31883 0.187111,-0.29511 1.516259,0.47055 1.395958,0.80414 1.466014,0.86919 1.179099,1.09488 -0.156546,0.12313 -0.146076,0.12649 -0.824413,-0.26382 z m 14.543951,0.2669 c -0.09621,-0.0962 -0.110162,-0.24861 -0.03179,-0.34723 0.05858,-0.0737 2.212364,-1.33083 2.40402,-1.40317 0.243025,-0.0917 0.449687,0.1972 0.287873,0.40248 -0.04428,0.0562 -1.903974,1.15347 -2.315979,1.36654 -0.169034,0.0874 -0.242042,0.0834 -0.34412,-0.0186 z m -11.136262,-2.95861 c -0.10044,-0.0639 -1.411778,-2.39556 -1.411778,-2.5103 0,-0.22044 0.29146,-0.34126 0.433804,-0.17983 0.148817,0.16876 1.389053,2.3875 1.389053,2.48497 0,0.19015 -0.243506,0.31169 -0.411079,0.20516 z m 8.193045,-0.0331 c -0.03664,-0.0367 -0.06661,-0.1152 -0.06661,-0.17458 0,-0.10067 1.114432,-2.10573 1.344449,-2.4189 0.168104,-0.22887 0.478408,-0.15034 0.478408,0.12107 0,0.10465 -1.32104,2.44773 -1.413041,2.50626 -0.08525,0.0543 -0.273706,0.0356 -0.343201,-0.0339 z m -4.151338,-1.07121 c -0.06395,-0.0707 -0.06958,-0.24939 -0.05956,-1.89543 l 0.01107,-1.8174 0.116578,-0.0652 c 0.104909,-0.0587 0.128246,-0.0587 0.233156,0 l 0.116578,0.0652 0.01107,1.8174 c 0.01216,1.99944 0.01538,1.97347 -0.244214,1.97347 -0.06272,0 -0.145815,-0.0351 -0.184655,-0.078 z"
         id="path13687"
         inkscape:label="symbol" /><rect
         style="fill:none;fill-opacity:1;stroke:#ffffff;stroke-width:0.7;stroke-linejoin:bevel;stroke-dasharray:none;stroke-opacity:1"
         id="rect13635"
         width="24"
         height="24"
         x="55.946297"
         y="150.68578"
         ry="5"
         inkscape:label="border" /><text
         xml:space="preserve"
         style="font-style:normal;font-variant:normal;font-weight:normal;font-stretch:normal;font-size:9px;line-height:1.1;font-family:Arial;-inkscape-font-specification:Arial;text-align:start;letter-spacing:-0.185208px;text-anchor:start;fill:#ffffff;fill-opacity:1;stroke-width:6.00001;stroke-linejoin:bevel;stroke-opacity:0.7"
         x="84.92878"
         y="165.01488"
         id="text13695"
         inkscape:label="text"><tspan
           sodipodi:role="line"
           id="tspan13693"
           style="font-style:normal;font-variant:normal;font-weight:normal;font-stretch:normal;font-size:9px;font-family:Arial;-inkscape-font-specification:Arial;text-align:start;text-anchor:start;fill:#ffffff;fill-opacity:1;stroke-width:6"
           x="84.92878"
           y="165.01488">Light Effect</tspan></text></g><g
       id="g13776"
       inkscape:label="wind"
       transform="translate(-186.25769,-26.918719)"><rect
         style="fill:none;fill-opacity:1;stroke:#ffffff;stroke-width:0.7;stroke-linejoin:bevel;stroke-dasharray:none;stroke-opacity:1"
         id="rect13770"
         width="24"
         height="24"
         x="55.946297"
         y="150.68578"
         ry="5"
         inkscape:label="border" /><path
         id="path13978"
         style="color:#000000;fill:#ffffff;fill-opacity:1;stroke-linejoin:bevel;-inkscape-stroke:none"
         d="m 70.782962,155.50095 c -0.411497,0.005 -0.826992,0.10136 -1.208712,0.28526 -0.939619,0.4526 -1.661094,1.51712 -1.564245,2.93935 l 1.197342,-0.0822 c -0.06911,-1.01487 0.352413,-1.51901 0.888318,-1.77715 0.535906,-0.25814 1.202963,-0.1845 1.574581,0.1328 0.53648,0.45807 0.755914,1.21272 0.534851,1.80661 -0.221062,0.5939 -0.863645,1.17578 -2.493904,1.19321 H 58.58629 v 1.19941 h 11.130587 0.0062 c 1.942507,-0.0208 3.189273,-0.8549 3.605465,-1.97301 0.416192,-1.11811 0.02096,-2.37194 -0.879016,-3.14037 -0.396729,-0.33874 -0.88089,-0.52572 -1.382862,-0.57258 -0.09412,-0.009 -0.188742,-0.0124 -0.283703,-0.0114 z m 5.528344,3.16932 c -0.298018,0.006 -0.594918,0.0602 -0.877465,0.16278 -0.904152,0.32811 -1.633302,1.2545 -1.60352,2.51147 l 1.198893,-0.0294 c -0.01968,-0.83063 0.334142,-1.17893 0.814938,-1.35341 0.480795,-0.17447 1.114257,-0.0724 1.515152,0.27544 0.337782,0.29304 0.445327,0.88214 0.187586,1.42007 -0.257741,0.53793 -0.832412,1.01963 -1.992126,0.98598 h -0.01757 -18.536853 v 1.20148 h 18.519283 c 1.539331,0.0446 2.647654,-0.70653 3.10937,-1.67018 0.461717,-0.96364 0.325296,-2.14483 -0.482141,-2.84531 -0.378162,-0.32806 -0.83071,-0.53438 -1.301212,-0.61753 -0.176439,-0.0312 -0.355523,-0.0449 -0.534335,-0.0413 z m -17.725016,6.26215 v 1.20096 h 13.767635 c 1.102591,0.0165 1.63627,0.45757 1.876888,0.92191 0.240619,0.46434 0.156977,0.96742 -0.09198,1.22266 -0.352947,0.36186 -0.964637,0.4756 -1.460892,0.31833 -0.496255,-0.15727 -0.837063,-0.47578 -0.824239,-1.13843 l -1.19941,-0.0233 c -0.02252,1.16373 0.760555,2.02051 1.66243,2.30632 0.901876,0.28581 1.964743,0.11008 2.68149,-0.62477 0.663268,-0.68001 0.749868,-1.73861 0.296623,-2.61327 -0.453244,-0.87466 -1.478172,-1.54878 -2.923336,-1.57045 h -0.0083 z"
         inkscape:label="symbol" /><text
         xml:space="preserve"
         style="font-style:normal;font-variant:normal;font-weight:normal;font-stretch:normal;font-size:9px;line-height:1.1;font-family:Arial;-inkscape-font-specification:Arial;text-align:start;letter-spacing:-0.185208px;text-anchor:start;fill:#ffffff;fill-opacity:1;stroke-width:6.00001;stroke-linejoin:bevel;stroke-opacity:0.7"
         x="84.92878"
         y="165.01488"
         id="text13774"
         inkscape:label="text"><tspan
           sodipodi:role="line"
           id="tspan13772"
           style="font-style:normal;font-variant:normal;font-weight:normal;font-stretch:normal;font-size:9px;font-family:Arial;-inkscape-font-specification:Arial;text-align:start;text-anchor:start;fill:#ffffff;fill-opacity:1;stroke-width:6"
           x="84.92878"
           y="165.01488">Wind Effect</tspan></text></g><g
       id="g15087"
       inkscape:label="aroma"
       transform="translate(-193.02006,9.9260507)"><rect
         style="fill:none;fill-opacity:1;stroke:#ffffff;stroke-width:0.7;stroke-linejoin:bevel;stroke-dasharray:none;stroke-opacity:1"
         id="rect15079"
         width="24"
         height="24"
         x="55.946297"
         y="150.68578"
         ry="5"
         inkscape:label="border" /><path
         style="fill:#ffffff;fill-opacity:1;stroke-width:0.0286943"
         d="m 64.348511,171.73437 c -1.366423,-0.24381 -2.368998,-1.05172 -3.111932,-2.50768 -1.771248,-3.47121 -0.532857,-7.62718 2.882378,-9.6731 l 0.258248,-0.15469 h 3.572439 3.572437 l 0.254682,0.15141 c 3.370145,2.00373 4.629081,6.11688 2.930963,9.57594 -0.75338,1.53465 -1.766545,2.3684 -3.16918,2.60802 -0.382309,0.0653 -6.824069,0.0653 -7.190035,7e-5 z m 6.886628,-7.45676 c 0.955917,-0.15272 2.463353,-0.63025 2.938007,-0.9307 0.0902,-0.0571 -0.488027,-1.06258 -0.915392,-1.59178 -0.462876,-0.57317 -1.150054,-1.16777 -1.776348,-1.53705 l -0.148363,-0.0875 h -3.386321 -3.38632 l -0.266502,0.1675 c -1.025862,0.64477 -1.871295,1.56764 -2.409495,2.6302 -0.14975,0.29564 -0.372183,0.81759 -0.355445,0.83407 0.0042,0.003 0.188285,-0.0302 0.409232,-0.0764 2.363599,-0.49227 4.478516,-0.40087 6.152621,0.2659 0.397122,0.15816 0.874731,0.28976 1.221809,0.33662 0.126255,0.0171 0.268292,0.0365 0.315637,0.0431 0.197199,0.0278 1.333322,-0.0107 1.60688,-0.0542 z m -10.130498,-4.5846 c -0.126476,-0.11678 -0.155295,-0.256 -0.08407,-0.40611 0.04477,-0.0944 1.450142,-1.08189 2.014381,-1.41551 0.324756,-0.19202 0.684923,0.0918 0.544119,0.42884 -0.03904,0.0934 -1.425122,1.06825 -2.020514,1.421 -0.165247,0.0979 -0.328297,0.0877 -0.453923,-0.0282 z m 4.182429,-2.88362 0.0084,-1.85811 0.0892,-0.18652 c 0.151398,-0.31657 0.404006,-0.51365 0.7374,-0.57529 0.100653,-0.0185 0.809146,-0.0264 1.932994,-0.0211 l 1.774107,0.009 0.172167,0.0803 c 0.324609,0.15153 0.527824,0.41756 0.587649,0.76932 0.02073,0.12186 0.02845,0.76043 0.02306,1.90497 l -0.0082,1.72166 -2.662572,0.008 -2.662577,0.007 z m 2.856131,0.63631 c 0.161085,-0.10553 0.179245,-0.18237 0.179361,-0.75887 1.08e-4,-0.59921 -0.02143,-0.68213 -0.202523,-0.77925 -0.181563,-0.0974 -0.392884,-0.0328 -0.490989,0.1502 -0.08761,0.16336 -0.07792,1.12807 0.01271,1.26371 0.124072,0.18572 0.3298,0.23668 0.501448,0.12421 z m -6.936715,-0.43041 c -0.264041,-0.11401 -0.299229,-0.47379 -0.06209,-0.63479 0.100374,-0.0682 2.234366,-0.0959 2.429482,-0.0315 0.287955,0.0949 0.328236,0.50193 0.06396,0.64636 -0.131818,0.0721 -2.270123,0.0897 -2.431355,0.0201 z m 0.88982,-2.13952 c -0.816652,-0.54883 -1.03956,-0.71188 -1.074849,-0.78625 -0.119418,-0.25165 0.04635,-0.50123 0.332929,-0.50122 0.174876,0 2.127836,1.29989 2.215165,1.47442 0.114767,0.22935 -0.05443,0.50549 -0.30974,0.50549 -0.126302,0 -0.186405,-0.0357 -1.163505,-0.69244 z"
         id="path15209"
         inkscape:label="symbol" /><text
         xml:space="preserve"
         style="font-style:normal;font-variant:normal;font-weight:normal;font-stretch:normal;font-size:9px;line-height:1.1;font-family:Arial;-inkscape-font-specification:Arial;text-align:start;letter-spacing:-0.185208px;text-anchor:start;fill:#ffffff;fill-opacity:1;stroke-width:6.00001;stroke-linejoin:bevel;stroke-opacity:0.7"
         x="84.92878"
         y="165.01488"
         id="text15083"
         inkscape:label="text"><tspan
           sodipodi:role="line"
           id="tspan15081"
           style="font-style:normal;font-variant:normal;font-weight:normal;font-stretch:normal;font-size:9px;font-family:Arial;-inkscape-font-specification:Arial;text-align:start;text-anchor:start;fill:#ffffff;fill-opacity:1;stroke-width:6"
           x="84.92878"
           y="165.01488">Aroma Effect</tspan></text></g><rect
       style="fill:#ffffff;fill-opacity:1;stroke:#ff5d5d;stroke-width:1.2;stroke-linejoin:bevel;stroke-dasharray:none;stroke-opacity:1"
       id="rect15264"
       width="61.116726"
       height="18.335018"
       x="16.612492"
       y="92.575325"
       ry="5" /><rect
       style="display:inline;fill:#ffffff;fill-opacity:1;stroke:#ff5d5d;stroke-width:1.2;stroke-linejoin:bevel;stroke-dasharray:none;stroke-opacity:1"
       id="rect15266"
       width="75.086266"
       height="27.065981"
       x="20.686939"
       y="186.89923"
       ry="5" /></g></svg>
